<mxfile host="app.diagrams.net" agent="Mozilla/5.0 (Windows NT 10.0; Win64; x64) AppleWebKit/537.36 (KHTML, like Gecko) Chrome/133.0.0.0 Safari/537.36" version="26.0.11">
  <diagram name="PÃ¡gina-1" id="ITpOWt07tjn74sJ0wVYw">
    <mxGraphModel dx="2033" dy="1138" grid="1" gridSize="10" guides="1" tooltips="1" connect="1" arrows="1" fold="1" page="1" pageScale="1" pageWidth="1169" pageHeight="827" math="0" shadow="0">
      <root>
        <mxCell id="0" />
        <mxCell id="1" parent="0" />
        <mxCell id="aPur0dxtbKxk1z-seOyI-1" value="USER" style="rounded=0;whiteSpace=wrap;html=1;" parent="1" vertex="1">
          <mxGeometry x="310" y="384" width="120" height="60" as="geometry" />
        </mxCell>
        <mxCell id="aPur0dxtbKxk1z-seOyI-2" value="ROOM" style="rounded=0;whiteSpace=wrap;html=1;" parent="1" vertex="1">
          <mxGeometry x="730" y="384" width="120" height="60" as="geometry" />
        </mxCell>
        <mxCell id="aPur0dxtbKxk1z-seOyI-3" value="CREATES" style="shape=rhombus;perimeter=rhombusPerimeter;whiteSpace=wrap;html=1;align=center;" parent="1" vertex="1">
          <mxGeometry x="520" y="384" width="120" height="60" as="geometry" />
        </mxCell>
        <mxCell id="aPur0dxtbKxk1z-seOyI-6" value="" style="endArrow=none;html=1;rounded=0;entryX=0;entryY=0.5;entryDx=0;entryDy=0;" parent="1" target="aPur0dxtbKxk1z-seOyI-3" edge="1">
          <mxGeometry width="50" height="50" relative="1" as="geometry">
            <mxPoint x="430" y="414" as="sourcePoint" />
            <mxPoint x="480" y="364" as="targetPoint" />
          </mxGeometry>
        </mxCell>
        <mxCell id="aPur0dxtbKxk1z-seOyI-7" value="(0, n)" style="edgeLabel;html=1;align=center;verticalAlign=middle;resizable=0;points=[];" parent="aPur0dxtbKxk1z-seOyI-6" vertex="1" connectable="0">
          <mxGeometry x="-0.2678" y="-1" relative="1" as="geometry">
            <mxPoint x="8" y="-1" as="offset" />
          </mxGeometry>
        </mxCell>
        <mxCell id="aPur0dxtbKxk1z-seOyI-8" value="" style="endArrow=none;html=1;rounded=0;entryX=0;entryY=0.5;entryDx=0;entryDy=0;" parent="1" target="aPur0dxtbKxk1z-seOyI-2" edge="1">
          <mxGeometry width="50" height="50" relative="1" as="geometry">
            <mxPoint x="640" y="414" as="sourcePoint" />
            <mxPoint x="726" y="415" as="targetPoint" />
          </mxGeometry>
        </mxCell>
        <mxCell id="aPur0dxtbKxk1z-seOyI-9" value="(1, 1)" style="edgeLabel;html=1;align=center;verticalAlign=middle;resizable=0;points=[];" parent="aPur0dxtbKxk1z-seOyI-8" vertex="1" connectable="0">
          <mxGeometry x="-0.2678" y="-1" relative="1" as="geometry">
            <mxPoint x="8" y="-1" as="offset" />
          </mxGeometry>
        </mxCell>
        <mxCell id="aPur0dxtbKxk1z-seOyI-19" value="" style="ellipse;whiteSpace=wrap;html=1;aspect=fixed;fillColor=#0050ef;fontColor=#ffffff;strokeColor=#001DBC;" parent="1" vertex="1">
          <mxGeometry x="290" y="369" width="10" height="10" as="geometry" />
        </mxCell>
        <mxCell id="aPur0dxtbKxk1z-seOyI-20" value="" style="ellipse;whiteSpace=wrap;html=1;aspect=fixed;" parent="1" vertex="1">
          <mxGeometry x="290" y="388" width="10" height="10" as="geometry" />
        </mxCell>
        <mxCell id="aPur0dxtbKxk1z-seOyI-21" value="" style="ellipse;whiteSpace=wrap;html=1;aspect=fixed;fillColor=#0050ef;fontColor=#ffffff;strokeColor=#001DBC;" parent="1" vertex="1">
          <mxGeometry x="290" y="409" width="10" height="10" as="geometry" />
        </mxCell>
        <mxCell id="aPur0dxtbKxk1z-seOyI-22" value="id" style="text;html=1;align=center;verticalAlign=middle;resizable=0;points=[];autosize=1;strokeColor=none;fillColor=none;" parent="1" vertex="1">
          <mxGeometry x="250" y="359" width="30" height="30" as="geometry" />
        </mxCell>
        <mxCell id="aPur0dxtbKxk1z-seOyI-23" value="name" style="text;html=1;align=center;verticalAlign=middle;resizable=0;points=[];autosize=1;strokeColor=none;fillColor=none;" parent="1" vertex="1">
          <mxGeometry x="230" y="378" width="50" height="30" as="geometry" />
        </mxCell>
        <mxCell id="aPur0dxtbKxk1z-seOyI-24" value="email" style="text;html=1;align=center;verticalAlign=middle;resizable=0;points=[];autosize=1;strokeColor=none;fillColor=none;" parent="1" vertex="1">
          <mxGeometry x="230" y="398.5" width="50" height="30" as="geometry" />
        </mxCell>
        <mxCell id="aPur0dxtbKxk1z-seOyI-25" value="" style="ellipse;whiteSpace=wrap;html=1;aspect=fixed;fillColor=#0050ef;fontColor=#ffffff;strokeColor=#001DBC;" parent="1" vertex="1">
          <mxGeometry x="860" y="377" width="10" height="10" as="geometry" />
        </mxCell>
        <mxCell id="aPur0dxtbKxk1z-seOyI-26" value="" style="ellipse;whiteSpace=wrap;html=1;aspect=fixed;" parent="1" vertex="1">
          <mxGeometry x="860" y="396" width="10" height="10" as="geometry" />
        </mxCell>
        <mxCell id="aPur0dxtbKxk1z-seOyI-27" value="" style="ellipse;whiteSpace=wrap;html=1;aspect=fixed;" parent="1" vertex="1">
          <mxGeometry x="860" y="417" width="10" height="10" as="geometry" />
        </mxCell>
        <mxCell id="aPur0dxtbKxk1z-seOyI-28" value="id" style="text;html=1;align=center;verticalAlign=middle;resizable=0;points=[];autosize=1;strokeColor=none;fillColor=none;" parent="1" vertex="1">
          <mxGeometry x="870" y="368" width="30" height="30" as="geometry" />
        </mxCell>
        <mxCell id="aPur0dxtbKxk1z-seOyI-29" value="name" style="text;html=1;align=center;verticalAlign=middle;resizable=0;points=[];autosize=1;strokeColor=none;fillColor=none;" parent="1" vertex="1">
          <mxGeometry x="870" y="388" width="50" height="30" as="geometry" />
        </mxCell>
        <mxCell id="aPur0dxtbKxk1z-seOyI-30" value="is_private" style="text;html=1;align=center;verticalAlign=middle;resizable=0;points=[];autosize=1;strokeColor=none;fillColor=none;" parent="1" vertex="1">
          <mxGeometry x="870" y="406" width="70" height="30" as="geometry" />
        </mxCell>
        <mxCell id="aPur0dxtbKxk1z-seOyI-32" value="" style="ellipse;whiteSpace=wrap;html=1;aspect=fixed;" parent="1" vertex="1">
          <mxGeometry x="860" y="437" width="10" height="10" as="geometry" />
        </mxCell>
        <mxCell id="aPur0dxtbKxk1z-seOyI-33" value="description" style="text;html=1;align=center;verticalAlign=middle;resizable=0;points=[];autosize=1;strokeColor=none;fillColor=none;" parent="1" vertex="1">
          <mxGeometry x="865" y="428" width="80" height="30" as="geometry" />
        </mxCell>
        <mxCell id="aPur0dxtbKxk1z-seOyI-54" value="" style="ellipse;whiteSpace=wrap;html=1;aspect=fixed;" parent="1" vertex="1">
          <mxGeometry x="290" y="429" width="10" height="10" as="geometry" />
        </mxCell>
        <mxCell id="aPur0dxtbKxk1z-seOyI-55" value="password&amp;nbsp;" style="text;html=1;align=center;verticalAlign=middle;resizable=0;points=[];autosize=1;strokeColor=none;fillColor=none;" parent="1" vertex="1">
          <mxGeometry x="210" y="419" width="80" height="30" as="geometry" />
        </mxCell>
        <mxCell id="aPur0dxtbKxk1z-seOyI-58" value="" style="ellipse;whiteSpace=wrap;html=1;aspect=fixed;fillColor=#0050ef;fontColor=#ffffff;strokeColor=#001DBC;" parent="1" vertex="1">
          <mxGeometry x="290" y="448" width="10" height="10" as="geometry" />
        </mxCell>
        <mxCell id="aPur0dxtbKxk1z-seOyI-59" value="username" style="text;html=1;align=center;verticalAlign=middle;resizable=0;points=[];autosize=1;strokeColor=none;fillColor=none;" parent="1" vertex="1">
          <mxGeometry x="210" y="438" width="80" height="30" as="geometry" />
        </mxCell>
        <mxCell id="aPur0dxtbKxk1z-seOyI-61" value="JOIN" style="shape=rhombus;perimeter=rhombusPerimeter;whiteSpace=wrap;html=1;align=center;" parent="1" vertex="1">
          <mxGeometry x="520" y="210" width="120" height="60" as="geometry" />
        </mxCell>
        <mxCell id="aPur0dxtbKxk1z-seOyI-62" value="" style="endArrow=none;html=1;rounded=0;entryX=0;entryY=0.5;entryDx=0;entryDy=0;exitX=0.5;exitY=0;exitDx=0;exitDy=0;" parent="1" source="aPur0dxtbKxk1z-seOyI-1" target="aPur0dxtbKxk1z-seOyI-61" edge="1">
          <mxGeometry width="50" height="50" relative="1" as="geometry">
            <mxPoint x="430" y="240" as="sourcePoint" />
            <mxPoint x="480" y="190" as="targetPoint" />
            <Array as="points">
              <mxPoint x="370" y="240" />
            </Array>
          </mxGeometry>
        </mxCell>
        <mxCell id="aPur0dxtbKxk1z-seOyI-63" value="(0, n)" style="edgeLabel;html=1;align=center;verticalAlign=middle;resizable=0;points=[];" parent="aPur0dxtbKxk1z-seOyI-62" vertex="1" connectable="0">
          <mxGeometry x="-0.2678" y="-1" relative="1" as="geometry">
            <mxPoint x="29" y="-36" as="offset" />
          </mxGeometry>
        </mxCell>
        <mxCell id="aPur0dxtbKxk1z-seOyI-64" value="" style="endArrow=none;html=1;rounded=0;entryX=0.5;entryY=0;entryDx=0;entryDy=0;" parent="1" target="aPur0dxtbKxk1z-seOyI-2" edge="1">
          <mxGeometry width="50" height="50" relative="1" as="geometry">
            <mxPoint x="640" y="240" as="sourcePoint" />
            <mxPoint x="730" y="240" as="targetPoint" />
            <Array as="points">
              <mxPoint x="790" y="240" />
            </Array>
          </mxGeometry>
        </mxCell>
        <mxCell id="aPur0dxtbKxk1z-seOyI-65" value="(0, n)" style="edgeLabel;html=1;align=center;verticalAlign=middle;resizable=0;points=[];" parent="aPur0dxtbKxk1z-seOyI-64" vertex="1" connectable="0">
          <mxGeometry x="-0.2678" y="-1" relative="1" as="geometry">
            <mxPoint x="8" y="-1" as="offset" />
          </mxGeometry>
        </mxCell>
        <mxCell id="aPur0dxtbKxk1z-seOyI-66" value="MESSAGE" style="shape=rhombus;perimeter=rhombusPerimeter;whiteSpace=wrap;html=1;align=center;" parent="1" vertex="1">
          <mxGeometry x="524" y="96" width="120" height="60" as="geometry" />
        </mxCell>
        <mxCell id="aPur0dxtbKxk1z-seOyI-67" value="" style="endArrow=none;html=1;rounded=0;entryX=0;entryY=0.5;entryDx=0;entryDy=0;exitX=0.25;exitY=0;exitDx=0;exitDy=0;" parent="1" source="aPur0dxtbKxk1z-seOyI-1" target="aPur0dxtbKxk1z-seOyI-66" edge="1">
          <mxGeometry width="50" height="50" relative="1" as="geometry">
            <mxPoint x="320" y="380" as="sourcePoint" />
            <mxPoint x="484" y="76" as="targetPoint" />
            <Array as="points">
              <mxPoint x="340" y="126" />
            </Array>
          </mxGeometry>
        </mxCell>
        <mxCell id="aPur0dxtbKxk1z-seOyI-68" value="(0, n)" style="edgeLabel;html=1;align=center;verticalAlign=middle;resizable=0;points=[];" parent="aPur0dxtbKxk1z-seOyI-67" vertex="1" connectable="0">
          <mxGeometry x="-0.2678" y="-1" relative="1" as="geometry">
            <mxPoint x="139" y="-96" as="offset" />
          </mxGeometry>
        </mxCell>
        <mxCell id="aPur0dxtbKxk1z-seOyI-69" value="" style="endArrow=none;html=1;rounded=0;entryX=0.75;entryY=0;entryDx=0;entryDy=0;" parent="1" target="aPur0dxtbKxk1z-seOyI-2" edge="1">
          <mxGeometry width="50" height="50" relative="1" as="geometry">
            <mxPoint x="644" y="126" as="sourcePoint" />
            <mxPoint x="794" y="270" as="targetPoint" />
            <Array as="points">
              <mxPoint x="820" y="126" />
            </Array>
          </mxGeometry>
        </mxCell>
        <mxCell id="aPur0dxtbKxk1z-seOyI-70" value="(0, n)" style="edgeLabel;html=1;align=center;verticalAlign=middle;resizable=0;points=[];" parent="aPur0dxtbKxk1z-seOyI-69" vertex="1" connectable="0">
          <mxGeometry x="-0.2678" y="-1" relative="1" as="geometry">
            <mxPoint x="-113" y="-1" as="offset" />
          </mxGeometry>
        </mxCell>
        <mxCell id="aPur0dxtbKxk1z-seOyI-71" value="" style="ellipse;whiteSpace=wrap;html=1;aspect=fixed;" parent="1" vertex="1">
          <mxGeometry x="595" y="86" width="10" height="10" as="geometry" />
        </mxCell>
        <mxCell id="aPur0dxtbKxk1z-seOyI-72" value="content" style="text;html=1;align=center;verticalAlign=middle;resizable=0;points=[];autosize=1;strokeColor=none;fillColor=none;" parent="1" vertex="1">
          <mxGeometry x="605" y="75" width="60" height="30" as="geometry" />
        </mxCell>
        <mxCell id="aPur0dxtbKxk1z-seOyI-73" value="" style="ellipse;whiteSpace=wrap;html=1;aspect=fixed;" parent="1" vertex="1">
          <mxGeometry x="555" y="65" width="10" height="10" as="geometry" />
        </mxCell>
        <mxCell id="aPur0dxtbKxk1z-seOyI-74" value="date" style="text;html=1;align=center;verticalAlign=middle;resizable=0;points=[];autosize=1;strokeColor=none;fillColor=none;" parent="1" vertex="1">
          <mxGeometry x="560" y="55" width="50" height="30" as="geometry" />
        </mxCell>
        <mxCell id="aPur0dxtbKxk1z-seOyI-75" value="IS INVITED" style="shape=rhombus;perimeter=rhombusPerimeter;whiteSpace=wrap;html=1;align=center;" parent="1" vertex="1">
          <mxGeometry x="520" y="539" width="120" height="60" as="geometry" />
        </mxCell>
        <mxCell id="aPur0dxtbKxk1z-seOyI-76" value="" style="endArrow=none;html=1;rounded=0;entryX=0;entryY=0.5;entryDx=0;entryDy=0;exitX=0.5;exitY=1;exitDx=0;exitDy=0;" parent="1" source="aPur0dxtbKxk1z-seOyI-1" target="aPur0dxtbKxk1z-seOyI-75" edge="1">
          <mxGeometry width="50" height="50" relative="1" as="geometry">
            <mxPoint x="330" y="827" as="sourcePoint" />
            <mxPoint x="474" y="519" as="targetPoint" />
            <Array as="points">
              <mxPoint x="370" y="569" />
            </Array>
          </mxGeometry>
        </mxCell>
        <mxCell id="aPur0dxtbKxk1z-seOyI-77" value="(0, n)" style="edgeLabel;html=1;align=center;verticalAlign=middle;resizable=0;points=[];" parent="aPur0dxtbKxk1z-seOyI-76" vertex="1" connectable="0">
          <mxGeometry x="-0.2678" y="-1" relative="1" as="geometry">
            <mxPoint x="41" y="27" as="offset" />
          </mxGeometry>
        </mxCell>
        <mxCell id="aPur0dxtbKxk1z-seOyI-78" value="" style="endArrow=none;html=1;rounded=0;entryX=0.5;entryY=1;entryDx=0;entryDy=0;" parent="1" target="aPur0dxtbKxk1z-seOyI-2" edge="1">
          <mxGeometry width="50" height="50" relative="1" as="geometry">
            <mxPoint x="634" y="569" as="sourcePoint" />
            <mxPoint x="810" y="827" as="targetPoint" />
            <Array as="points">
              <mxPoint x="790" y="570" />
            </Array>
          </mxGeometry>
        </mxCell>
        <mxCell id="aPur0dxtbKxk1z-seOyI-79" value="(0, n)" style="edgeLabel;html=1;align=center;verticalAlign=middle;resizable=0;points=[];" parent="aPur0dxtbKxk1z-seOyI-78" vertex="1" connectable="0">
          <mxGeometry x="-0.2678" y="-1" relative="1" as="geometry">
            <mxPoint x="8" y="-1" as="offset" />
          </mxGeometry>
        </mxCell>
        <mxCell id="aPur0dxtbKxk1z-seOyI-80" value="" style="ellipse;whiteSpace=wrap;html=1;aspect=fixed;" parent="1" vertex="1">
          <mxGeometry x="551.5" y="519" width="10" height="10" as="geometry" />
        </mxCell>
        <mxCell id="aPur0dxtbKxk1z-seOyI-81" value="link" style="text;html=1;align=center;verticalAlign=middle;resizable=0;points=[];autosize=1;strokeColor=none;fillColor=none;" parent="1" vertex="1">
          <mxGeometry x="556.5" y="509" width="40" height="30" as="geometry" />
        </mxCell>
        <mxCell id="aPur0dxtbKxk1z-seOyI-84" value="ROLE" style="rounded=0;whiteSpace=wrap;html=1;" parent="1" vertex="1">
          <mxGeometry x="520" y="670" width="120" height="60" as="geometry" />
        </mxCell>
        <mxCell id="aPur0dxtbKxk1z-seOyI-87" value="IS ASSIGNED" style="shape=rhombus;perimeter=rhombusPerimeter;whiteSpace=wrap;html=1;align=center;" parent="1" vertex="1">
          <mxGeometry x="280" y="670" width="120" height="60" as="geometry" />
        </mxCell>
        <mxCell id="aPur0dxtbKxk1z-seOyI-88" value="CONTAINS" style="shape=rhombus;perimeter=rhombusPerimeter;whiteSpace=wrap;html=1;align=center;" parent="1" vertex="1">
          <mxGeometry x="760" y="670" width="120" height="60" as="geometry" />
        </mxCell>
        <mxCell id="aPur0dxtbKxk1z-seOyI-89" value="" style="endArrow=none;html=1;rounded=0;exitX=0.75;exitY=1;exitDx=0;exitDy=0;entryX=0.5;entryY=0;entryDx=0;entryDy=0;" parent="1" source="aPur0dxtbKxk1z-seOyI-2" target="aPur0dxtbKxk1z-seOyI-88" edge="1">
          <mxGeometry width="50" height="50" relative="1" as="geometry">
            <mxPoint x="580" y="520" as="sourcePoint" />
            <mxPoint x="630" y="470" as="targetPoint" />
          </mxGeometry>
        </mxCell>
        <mxCell id="aPur0dxtbKxk1z-seOyI-96" value="(0, n)" style="edgeLabel;html=1;align=center;verticalAlign=middle;resizable=0;points=[];" parent="aPur0dxtbKxk1z-seOyI-89" vertex="1" connectable="0">
          <mxGeometry x="-0.0063" relative="1" as="geometry">
            <mxPoint as="offset" />
          </mxGeometry>
        </mxCell>
        <mxCell id="aPur0dxtbKxk1z-seOyI-90" value="" style="endArrow=none;html=1;rounded=0;exitX=0.75;exitY=1;exitDx=0;exitDy=0;entryX=0.5;entryY=0;entryDx=0;entryDy=0;" parent="1" edge="1">
          <mxGeometry width="50" height="50" relative="1" as="geometry">
            <mxPoint x="340" y="444" as="sourcePoint" />
            <mxPoint x="340" y="670" as="targetPoint" />
          </mxGeometry>
        </mxCell>
        <mxCell id="aPur0dxtbKxk1z-seOyI-93" value="(0, n)" style="edgeLabel;html=1;align=center;verticalAlign=middle;resizable=0;points=[];" parent="aPur0dxtbKxk1z-seOyI-90" vertex="1" connectable="0">
          <mxGeometry x="0.1049" y="1" relative="1" as="geometry">
            <mxPoint as="offset" />
          </mxGeometry>
        </mxCell>
        <mxCell id="aPur0dxtbKxk1z-seOyI-91" value="" style="endArrow=none;html=1;rounded=0;exitX=0;exitY=0.5;exitDx=0;exitDy=0;entryX=1;entryY=0.5;entryDx=0;entryDy=0;" parent="1" source="aPur0dxtbKxk1z-seOyI-84" target="aPur0dxtbKxk1z-seOyI-87" edge="1">
          <mxGeometry width="50" height="50" relative="1" as="geometry">
            <mxPoint x="350" y="454" as="sourcePoint" />
            <mxPoint x="350" y="680" as="targetPoint" />
          </mxGeometry>
        </mxCell>
        <mxCell id="aPur0dxtbKxk1z-seOyI-94" value="(0, n)" style="edgeLabel;html=1;align=center;verticalAlign=middle;resizable=0;points=[];" parent="aPur0dxtbKxk1z-seOyI-91" vertex="1" connectable="0">
          <mxGeometry x="0.3" y="2" relative="1" as="geometry">
            <mxPoint as="offset" />
          </mxGeometry>
        </mxCell>
        <mxCell id="aPur0dxtbKxk1z-seOyI-92" value="" style="endArrow=none;html=1;rounded=0;exitX=0;exitY=0.5;exitDx=0;exitDy=0;entryX=1;entryY=0.5;entryDx=0;entryDy=0;" parent="1" edge="1">
          <mxGeometry width="50" height="50" relative="1" as="geometry">
            <mxPoint x="760" y="699.71" as="sourcePoint" />
            <mxPoint x="640" y="699.71" as="targetPoint" />
          </mxGeometry>
        </mxCell>
        <mxCell id="aPur0dxtbKxk1z-seOyI-95" value="(1, 1)" style="edgeLabel;html=1;align=center;verticalAlign=middle;resizable=0;points=[];" parent="aPur0dxtbKxk1z-seOyI-92" vertex="1" connectable="0">
          <mxGeometry x="0.2143" y="1" relative="1" as="geometry">
            <mxPoint as="offset" />
          </mxGeometry>
        </mxCell>
        <mxCell id="aPur0dxtbKxk1z-seOyI-97" value="" style="ellipse;whiteSpace=wrap;html=1;aspect=fixed;fillColor=#0050ef;fontColor=#ffffff;strokeColor=#001DBC;" parent="1" vertex="1">
          <mxGeometry x="610" y="747" width="10" height="10" as="geometry" />
        </mxCell>
        <mxCell id="aPur0dxtbKxk1z-seOyI-98" value="id" style="text;html=1;align=center;verticalAlign=middle;resizable=0;points=[];autosize=1;strokeColor=none;fillColor=none;" parent="1" vertex="1">
          <mxGeometry x="614" y="737" width="30" height="30" as="geometry" />
        </mxCell>
        <mxCell id="aPur0dxtbKxk1z-seOyI-99" value="" style="ellipse;whiteSpace=wrap;html=1;aspect=fixed;" parent="1" vertex="1">
          <mxGeometry x="561.5" y="766" width="10" height="10" as="geometry" />
        </mxCell>
        <mxCell id="aPur0dxtbKxk1z-seOyI-101" value="name" style="text;html=1;align=center;verticalAlign=middle;resizable=0;points=[];autosize=1;strokeColor=none;fillColor=none;" parent="1" vertex="1">
          <mxGeometry x="565" y="756" width="50" height="30" as="geometry" />
        </mxCell>
        <mxCell id="aPur0dxtbKxk1z-seOyI-103" value="" style="ellipse;whiteSpace=wrap;html=1;aspect=fixed;" parent="1" vertex="1">
          <mxGeometry x="524" y="786" width="10" height="10" as="geometry" />
        </mxCell>
        <mxCell id="aPur0dxtbKxk1z-seOyI-104" value="description" style="text;html=1;align=center;verticalAlign=middle;resizable=0;points=[];autosize=1;strokeColor=none;fillColor=none;" parent="1" vertex="1">
          <mxGeometry x="530" y="776" width="80" height="30" as="geometry" />
        </mxCell>
        <mxCell id="VtuiBz7HI3tsL34c43Dh-2" value="" style="endArrow=none;html=1;rounded=0;exitX=1;exitY=0.5;exitDx=0;exitDy=0;entryX=0;entryY=0.5;entryDx=0;entryDy=0;" edge="1" parent="1" source="aPur0dxtbKxk1z-seOyI-21" target="aPur0dxtbKxk1z-seOyI-1">
          <mxGeometry width="50" height="50" relative="1" as="geometry">
            <mxPoint x="380" y="390" as="sourcePoint" />
            <mxPoint x="430" y="340" as="targetPoint" />
          </mxGeometry>
        </mxCell>
        <mxCell id="VtuiBz7HI3tsL34c43Dh-3" value="" style="endArrow=none;html=1;rounded=0;exitX=1;exitY=0.5;exitDx=0;exitDy=0;entryX=0;entryY=0.5;entryDx=0;entryDy=0;" edge="1" parent="1">
          <mxGeometry width="50" height="50" relative="1" as="geometry">
            <mxPoint x="300" y="392.92" as="sourcePoint" />
            <mxPoint x="310" y="392.92" as="targetPoint" />
          </mxGeometry>
        </mxCell>
        <mxCell id="VtuiBz7HI3tsL34c43Dh-4" value="" style="endArrow=none;html=1;rounded=0;exitX=1;exitY=0.5;exitDx=0;exitDy=0;entryX=0;entryY=0.5;entryDx=0;entryDy=0;" edge="1" parent="1">
          <mxGeometry width="50" height="50" relative="1" as="geometry">
            <mxPoint x="300" y="433.92" as="sourcePoint" />
            <mxPoint x="310" y="433.92" as="targetPoint" />
          </mxGeometry>
        </mxCell>
        <mxCell id="VtuiBz7HI3tsL34c43Dh-5" value="" style="endArrow=none;html=1;rounded=0;exitX=1;exitY=0.5;exitDx=0;exitDy=0;entryX=1;entryY=0.5;entryDx=0;entryDy=0;" edge="1" parent="1" target="aPur0dxtbKxk1z-seOyI-58">
          <mxGeometry width="50" height="50" relative="1" as="geometry">
            <mxPoint x="310" y="443.92" as="sourcePoint" />
            <mxPoint x="320" y="443.92" as="targetPoint" />
            <Array as="points">
              <mxPoint x="310" y="453" />
            </Array>
          </mxGeometry>
        </mxCell>
        <mxCell id="VtuiBz7HI3tsL34c43Dh-6" value="" style="endArrow=none;html=1;rounded=0;exitX=1;exitY=0.5;exitDx=0;exitDy=0;entryX=0;entryY=0.5;entryDx=0;entryDy=0;" edge="1" parent="1" source="aPur0dxtbKxk1z-seOyI-19">
          <mxGeometry width="50" height="50" relative="1" as="geometry">
            <mxPoint x="300" y="383.84000000000003" as="sourcePoint" />
            <mxPoint x="310" y="383.84000000000003" as="targetPoint" />
            <Array as="points">
              <mxPoint x="310" y="374" />
            </Array>
          </mxGeometry>
        </mxCell>
        <mxCell id="VtuiBz7HI3tsL34c43Dh-7" value="" style="endArrow=none;html=1;rounded=0;exitX=1;exitY=0.5;exitDx=0;exitDy=0;entryX=0;entryY=0.5;entryDx=0;entryDy=0;" edge="1" parent="1">
          <mxGeometry width="50" height="50" relative="1" as="geometry">
            <mxPoint x="850" y="400.89" as="sourcePoint" />
            <mxPoint x="860" y="400.89" as="targetPoint" />
          </mxGeometry>
        </mxCell>
        <mxCell id="VtuiBz7HI3tsL34c43Dh-8" value="" style="endArrow=none;html=1;rounded=0;exitX=1;exitY=0.5;exitDx=0;exitDy=0;entryX=0;entryY=0.5;entryDx=0;entryDy=0;" edge="1" parent="1">
          <mxGeometry width="50" height="50" relative="1" as="geometry">
            <mxPoint x="850" y="421.95" as="sourcePoint" />
            <mxPoint x="860" y="421.95" as="targetPoint" />
          </mxGeometry>
        </mxCell>
        <mxCell id="VtuiBz7HI3tsL34c43Dh-9" value="" style="endArrow=none;html=1;rounded=0;exitX=1;exitY=0.5;exitDx=0;exitDy=0;entryX=0;entryY=0.5;entryDx=0;entryDy=0;" edge="1" parent="1">
          <mxGeometry width="50" height="50" relative="1" as="geometry">
            <mxPoint x="850" y="441.95" as="sourcePoint" />
            <mxPoint x="860" y="441.95" as="targetPoint" />
          </mxGeometry>
        </mxCell>
        <mxCell id="VtuiBz7HI3tsL34c43Dh-10" value="" style="endArrow=none;html=1;rounded=0;exitX=1;exitY=0.5;exitDx=0;exitDy=0;entryX=0;entryY=0.5;entryDx=0;entryDy=0;" edge="1" parent="1" target="aPur0dxtbKxk1z-seOyI-25">
          <mxGeometry width="50" height="50" relative="1" as="geometry">
            <mxPoint x="850" y="384" as="sourcePoint" />
            <mxPoint x="860" y="384" as="targetPoint" />
            <Array as="points">
              <mxPoint x="850" y="382" />
            </Array>
          </mxGeometry>
        </mxCell>
        <mxCell id="VtuiBz7HI3tsL34c43Dh-12" value="" style="endArrow=none;html=1;rounded=0;exitX=0.5;exitY=1;exitDx=0;exitDy=0;entryX=0.298;entryY=0.196;entryDx=0;entryDy=0;entryPerimeter=0;" edge="1" parent="1" source="aPur0dxtbKxk1z-seOyI-73" target="aPur0dxtbKxk1z-seOyI-66">
          <mxGeometry width="50" height="50" relative="1" as="geometry">
            <mxPoint x="580" y="80" as="sourcePoint" />
            <mxPoint x="560" y="90" as="targetPoint" />
          </mxGeometry>
        </mxCell>
        <mxCell id="VtuiBz7HI3tsL34c43Dh-13" value="" style="endArrow=none;html=1;rounded=0;exitX=0.5;exitY=1;exitDx=0;exitDy=0;entryX=0.633;entryY=0.136;entryDx=0;entryDy=0;entryPerimeter=0;" edge="1" parent="1" target="aPur0dxtbKxk1z-seOyI-66">
          <mxGeometry width="50" height="50" relative="1" as="geometry">
            <mxPoint x="599.94" y="96" as="sourcePoint" />
            <mxPoint x="599.94" y="129" as="targetPoint" />
          </mxGeometry>
        </mxCell>
        <mxCell id="VtuiBz7HI3tsL34c43Dh-14" value="" style="endArrow=none;html=1;rounded=0;exitX=0.5;exitY=1;exitDx=0;exitDy=0;entryX=0.304;entryY=0.187;entryDx=0;entryDy=0;entryPerimeter=0;" edge="1" parent="1" target="aPur0dxtbKxk1z-seOyI-75">
          <mxGeometry width="50" height="50" relative="1" as="geometry">
            <mxPoint x="556.5" y="529" as="sourcePoint" />
            <mxPoint x="556.5" y="562" as="targetPoint" />
          </mxGeometry>
        </mxCell>
        <mxCell id="VtuiBz7HI3tsL34c43Dh-15" value="" style="endArrow=none;html=1;rounded=0;exitX=0.788;exitY=1.005;exitDx=0;exitDy=0;exitPerimeter=0;entryX=0.5;entryY=0;entryDx=0;entryDy=0;" edge="1" parent="1" source="aPur0dxtbKxk1z-seOyI-84" target="aPur0dxtbKxk1z-seOyI-97">
          <mxGeometry width="50" height="50" relative="1" as="geometry">
            <mxPoint x="615" y="730" as="sourcePoint" />
            <mxPoint x="615" y="740" as="targetPoint" />
          </mxGeometry>
        </mxCell>
        <mxCell id="VtuiBz7HI3tsL34c43Dh-16" value="" style="endArrow=none;html=1;rounded=0;exitX=0.788;exitY=1.005;exitDx=0;exitDy=0;exitPerimeter=0;entryX=0.5;entryY=0;entryDx=0;entryDy=0;" edge="1" parent="1" target="aPur0dxtbKxk1z-seOyI-99">
          <mxGeometry width="50" height="50" relative="1" as="geometry">
            <mxPoint x="566.44" y="730" as="sourcePoint" />
            <mxPoint x="560" y="750" as="targetPoint" />
          </mxGeometry>
        </mxCell>
        <mxCell id="VtuiBz7HI3tsL34c43Dh-17" value="" style="endArrow=none;html=1;rounded=0;exitX=0.788;exitY=1.005;exitDx=0;exitDy=0;exitPerimeter=0;entryX=0.5;entryY=0;entryDx=0;entryDy=0;" edge="1" parent="1" target="aPur0dxtbKxk1z-seOyI-103">
          <mxGeometry width="50" height="50" relative="1" as="geometry">
            <mxPoint x="528.72" y="730" as="sourcePoint" />
            <mxPoint x="529.28" y="766" as="targetPoint" />
          </mxGeometry>
        </mxCell>
      </root>
    </mxGraphModel>
  </diagram>
</mxfile>
